<svg version="1.1" id="Layer_1" xmlns="http://www.w3.org/2000/svg" xmlns:xlink="http://www.w3.org/1999/xlink" x="0px" y="0px"
	 width="100%" viewBox="0 0 1024 1024" enable-background="new 0 0 1024 1024" xml:space="preserve">
<path fill="#000000" opacity="1.000000" stroke="none" 
	d="
M704.801697,485.545807 
	C707.365967,496.387177 708.108521,506.867920 706.591248,517.585693 
	C704.851685,529.873962 699.130493,539.754028 690.274597,548.211975 
	C636.646362,599.430847 584.921692,652.564148 532.630859,705.128174 
	C517.116516,720.723633 499.132385,731.852539 477.069519,735.557068 
	C447.513489,740.519714 421.805634,732.314636 399.447876,712.845093 
	C394.548859,708.578979 390.142212,703.778809 386.596222,698.257690 
	C382.317169,691.595276 382.468597,685.906677 387.944153,680.139038 
	C393.330109,674.465820 399.025421,669.054016 404.901489,663.887573 
	C410.759125,658.737244 417.526367,659.138062 423.306366,664.476868 
	C426.121552,667.077148 428.776337,669.853149 431.624939,672.414795 
	C450.240326,689.155151 472.537689,689.792419 491.017914,672.887268 
	C506.740295,658.504761 521.477539,643.039368 536.538269,627.940918 
	C572.787476,591.600830 608.973755,555.197937 645.172791,518.807861 
	C647.169312,516.800842 649.176147,514.781982 650.965820,512.594910 
	C660.771362,500.612335 656.909119,485.570801 642.542542,479.572418 
	C630.149597,474.398071 615.949646,477.423157 605.784851,487.617096 
	C569.070374,524.436768 532.275818,561.177979 495.764862,598.198608 
	C473.928955,620.339294 447.984436,634.328247 417.136200,638.067566 
	C356.729553,645.389587 297.848663,622.857666 264.532410,562.803223 
	C254.753311,545.175903 249.448105,526.119629 247.433914,505.918243 
	C244.873718,480.240631 249.624481,456.292450 261.557648,433.615723 
	C268.244965,420.907715 278.116516,410.674133 288.070160,400.613770 
	C323.815460,364.485199 359.770508,328.564209 395.546173,292.465607 
	C407.986298,279.913208 422.635925,271.575226 439.973114,268.141785 
	C454.108917,265.342316 467.816193,266.023956 480.362762,274.121185 
	C486.462585,278.057861 486.264923,278.987183 481.209320,283.908966 
	C463.180542,301.460541 445.440979,319.309082 427.416534,336.865143 
	C401.988800,361.632050 376.815308,386.649139 352.011383,412.041473 
	C338.507874,425.865356 324.767944,439.458099 311.225342,453.244171 
	C302.969604,461.648285 299.084198,472.064758 297.318878,483.565857 
	C290.469025,528.192871 324.470337,578.737366 375.818787,588.285034 
	C408.123718,594.291931 436.289490,584.799988 459.503754,561.941772 
	C496.552521,525.461365 533.168152,488.539490 569.817688,451.656036 
	C585.465332,435.908447 604.467346,427.953796 626.317749,428.045105 
	C663.034790,428.198547 694.547302,449.078186 704.801697,485.545807 
z"/>
<path fill="#000000" opacity="1.000000" stroke="none" 
	d="
M594.305420,333.709656 
	C587.569397,326.667389 580.871643,320.065155 571.449951,317.575439 
	C555.563416,313.377441 541.613525,317.673767 530.075317,328.818451 
	C511.262939,346.989227 492.882477,365.607971 474.364166,384.082153 
	C440.866669,417.499817 407.392059,450.940430 373.933105,484.396698 
	C368.365356,489.963989 363.528198,496.005615 365.995941,504.636932 
	C368.669891,513.989563 375.677246,518.604126 384.703949,520.631653 
	C396.103546,523.192322 405.709991,519.539246 413.869843,511.675140 
	C421.427887,504.390930 428.813995,496.926605 436.209351,489.475616 
	C465.673187,459.790100 495.132202,430.099731 524.551758,400.370361 
	C547.546021,377.133911 575.290955,363.196716 607.714905,359.895447 
	C663.935425,354.171326 711.096558,371.996674 746.820984,416.657135 
	C763.263855,437.212891 772.689880,460.944214 776.595703,487.070557 
	C780.927612,516.046997 777.219788,543.369995 762.436096,568.950989 
	C755.846069,580.354065 746.736938,589.619995 737.582886,598.833557 
	C700.586670,636.070129 663.456116,673.173401 626.474731,710.424683 
	C613.026062,723.971436 597.146362,732.733948 578.307678,735.936523 
	C565.285583,738.150330 552.769470,737.281616 541.540344,729.286560 
	C536.987549,726.044983 536.637695,723.658264 540.525330,720.266174 
	C559.510132,703.701660 576.708923,685.309814 594.425049,667.454285 
	C627.638306,633.979675 660.798157,600.455383 694.705811,567.677124 
	C703.296692,559.372375 712.958130,551.900879 718.792419,541.139587 
	C729.293701,521.770142 730.131531,501.363525 723.650574,480.727448 
	C711.319519,441.464020 684.710144,417.044373 644.304077,409.820557 
	C612.120300,404.066772 583.486755,412.684021 559.944275,436.646576 
	C525.379395,471.828217 490.212372,506.418457 455.659119,541.611389 
	C443.260895,554.239136 429.880737,564.756165 412.334412,568.821716 
	C370.291199,578.563110 328.184845,554.233337 318.335419,513.768066 
	C315.230438,501.011688 314.932739,488.117432 318.531281,475.311981 
	C320.371979,468.761810 323.553864,463.024597 328.461487,458.259888 
	C384.417542,403.932678 439.093689,348.322449 494.123138,293.065735 
	C514.758911,272.344818 540.018616,262.895630 568.965515,265.933167 
	C595.478088,268.715302 617.262756,281.200592 633.250000,302.940582 
	C638.202454,309.675018 637.337341,317.186615 631.256531,323.150635 
	C627.569397,326.766937 623.865234,330.365814 620.176575,333.980560 
	C610.022705,343.931000 604.461975,343.928772 594.305420,333.709656 
z"/>
<path fill="#000000" opacity="1.000000" stroke="none" 
	d="
M660.884399,818.810303 
	C711.403687,793.543091 752.613098,757.969238 784.834595,712.084717 
	C814.037781,670.498474 833.480896,624.745850 842.731140,574.689880 
	C846.335022,555.187988 848.517639,535.530090 848.538452,515.751038 
	C848.573059,482.863617 843.949707,450.535736 834.813293,418.896271 
	C834.306763,417.142090 833.968262,415.339325 833.459839,413.585754 
	C831.336792,406.263000 833.771912,400.406555 839.573303,395.979828 
	C843.933899,392.652496 848.547729,389.612274 853.263123,386.804260 
	C862.156006,381.508606 870.761414,384.589264 873.929321,394.355957 
	C881.835144,418.730225 887.344543,443.638885 890.432983,469.103485 
	C892.397644,485.303162 893.553711,501.508942 893.381592,517.836426 
	C892.927246,560.928162 885.283691,602.752869 871.008911,643.327881 
	C846.215027,713.802856 804.432312,772.276489 745.807007,818.601868 
	C698.396851,856.064941 644.689209,879.790710 585.434753,891.033997 
	C561.525024,895.570740 537.308105,897.669678 512.993103,897.070557 
	C433.301086,895.107178 360.824585,870.987244 295.513916,825.298523 
	C289.865784,821.347229 289.649811,821.294983 284.777496,826.384766 
	C273.947754,837.697998 263.310150,849.197144 252.374374,860.405945 
	C246.855240,866.062866 241.153412,866.808777 235.782944,863.411865 
	C231.675995,860.814148 230.550354,856.475403 229.930328,852.259033 
	C227.010086,832.400330 224.388229,812.497925 221.643646,792.613342 
	C219.535400,777.339172 217.504578,762.052917 215.207718,746.807007 
	C214.654343,743.133728 214.496155,739.494446 214.746292,735.865540 
	C215.221176,728.975952 222.068329,723.590393 229.747543,724.355835 
	C252.205139,726.594421 274.633514,729.124146 297.084381,731.432556 
	C311.783325,732.943909 326.502838,734.254395 341.209656,735.690369 
	C344.184692,735.980835 347.194153,736.205750 350.101196,736.850891 
	C357.925079,738.587036 360.261108,749.348083 354.114563,755.930847 
	C345.929535,764.696838 337.513672,773.247131 329.203705,781.896667 
	C327.267883,783.911621 325.359161,785.952576 323.415588,788.005249 
	C402.044342,848.685852 535.161865,879.899475 660.884399,818.810303 
z"/>
<path fill="#000000" opacity="1.000000" stroke="none" 
	d="
M272.572296,275.574158 
	C226.813477,323.677856 198.334793,380.281830 185.215302,444.856934 
	C179.591644,472.536926 177.382065,500.505707 178.491714,528.641724 
	C179.535278,555.101746 184.057266,581.091370 192.008316,606.434631 
	C196.134247,619.585754 194.532532,623.775330 183.055649,631.620117 
	C179.483734,634.061646 176.029099,636.736145 172.240921,638.787109 
	C164.190796,643.145630 156.346771,640.104309 153.466507,631.480530 
	C144.873718,605.752930 138.242264,579.622742 135.425323,552.503357 
	C133.403992,533.043640 132.916260,513.569824 133.903854,494.158875 
	C136.595749,441.250092 149.322128,390.604492 172.345963,342.923401 
	C220.773651,242.632263 298.980927,176.692688 405.190918,143.835861 
	C428.739044,136.551086 452.922638,132.360001 477.545380,130.489777 
	C491.661102,129.417618 505.762299,128.301620 519.908081,128.786377 
	C570.135071,130.507675 618.385742,141.056549 664.385071,161.526199 
	C687.907166,171.993530 710.074524,184.815964 730.947144,199.849228 
	C734.910217,202.703552 737.525330,202.730438 741.010925,198.974457 
	C751.547119,187.620682 762.490051,176.645187 773.210449,165.460938 
	C777.203491,161.295135 781.705444,159.069000 787.520874,160.972183 
	C793.229736,162.840485 795.312805,167.607132 796.130066,172.847137 
	C798.047180,185.139374 799.609741,197.486923 801.313660,209.812378 
	C804.152100,230.345047 807.027954,250.872665 809.800659,271.414215 
	C810.554443,276.998901 811.582886,282.552856 811.387329,288.255585 
	C811.114136,296.221802 806.250732,301.519745 798.159058,301.237579 
	C790.212830,300.960510 782.288757,299.899933 774.368835,299.053467 
	C760.181274,297.537170 746.003357,295.929779 731.822693,294.349091 
	C713.856934,292.346466 695.887024,290.379333 677.932007,288.284698 
	C674.243713,287.854401 671.016357,285.992249 670.104980,282.228363 
	C668.992615,277.634521 668.929199,272.953674 672.651550,269.120453 
	C680.659912,260.873535 688.632507,252.591888 696.611267,244.316376 
	C697.883179,242.997208 699.060852,241.584244 700.370483,240.305161 
	C703.270508,237.472824 702.015625,235.385513 699.299805,233.423874 
	C688.075989,225.316849 676.363037,218.014694 664.105896,211.559067 
	C631.273376,194.266815 596.452759,182.928223 559.794128,177.625107 
	C531.725159,173.564575 503.540314,173.168549 475.222473,176.182678 
	C407.804291,183.358643 348.545837,209.218307 296.759186,252.657700 
	C288.331451,259.726990 280.437988,267.387665 272.572296,275.574158 
z"/>
</svg>